M48
; DRILL file {KiCad (5.1.6-0-10_14)} date Sunday, September 27, 2020 at 09:55:35 AM
; FORMAT={-:-/ absolute / inch / decimal}
; #@! TF.CreationDate,2020-09-27T09:55:35+02:00
; #@! TF.GenerationSoftware,Kicad,Pcbnew,(5.1.6-0-10_14)
; #@! TF.FileFunction,Plated,1,2,PTH
FMAT,2
INCH
T1C0.0315
T2C0.0354
T3C0.0394
T4C0.0433
T5C0.0472
T6C0.0551
T7C0.1102
%
G90
G05
T1
X3.6Y-4.05
X3.6Y-4.15
X3.6Y-4.25
X3.6Y-4.35
X3.9Y-4.05
X3.9Y-4.15
X3.9Y-4.25
X3.9Y-4.35
X2.9231Y-3.49
X3.12Y-3.49
X4.0531Y-3.71
X4.25Y-3.71
X3.12Y-3.77
X3.12Y-4.07
X3.22Y-3.77
X3.22Y-4.07
X2.88Y-3.84
X2.88Y-4.0369
X4.58Y-4.05
X4.58Y-4.2469
X2.98Y-4.52
X3.1769Y-4.52
X3.32Y-3.77
X3.32Y-4.07
X3.6Y-4.64
X3.9Y-4.64
X4.06Y-4.05
X4.06Y-4.2469
X3.6Y-4.54
X3.9Y-4.54
X4.4Y-3.71
X4.5969Y-3.71
X3.35Y-4.52
X3.35Y-4.7169
T2
X3.7Y-3.28
X3.8Y-3.28
T3
X3.66Y-3.54
X3.76Y-3.54
X3.86Y-3.54
X2.93Y-4.63
X3.23Y-4.63
X3.48Y-4.58
X3.48Y-4.88
X3.6Y-3.88
X3.9Y-3.88
X4.01Y-4.58
X4.01Y-4.88
X4.17Y-4.12
X4.47Y-4.12
X4.32Y-4.62
X4.62Y-4.62
X2.93Y-4.74
X3.23Y-4.74
X2.98Y-3.78
X2.98Y-4.08
X4.24Y-4.75
X4.24Y-4.85
X4.55Y-4.75
X4.55Y-4.85
X3.62Y-3.71
X3.92Y-3.71
X4.17Y-3.86
X4.47Y-3.86
X3.27Y-3.54
X3.37Y-3.54
X3.47Y-3.54
X2.88Y-3.63
X3.18Y-3.63
X3.5Y-3.675
X3.5Y-3.975
X4.17Y-3.99
X4.47Y-3.99
X3.05Y-4.18
X3.35Y-4.18
T4
X2.9Y-4.87
X3.3Y-4.87
T5
X3.94Y-3.2
X3.9Y-5.13
X3.6Y-4.775
X3.7Y-4.775
X3.7Y-5.13
X3.8Y-5.13
X3.6Y-5.13
X3.9Y-4.775
X3.8Y-4.775
X3.48Y-5.13
X3.56Y-3.2
X4.02Y-5.13
T6
X4.1Y-3.325
X4.3Y-3.325
X4.5Y-3.325
X3.0Y-4.375
X3.2Y-4.375
X3.4Y-4.375
X3.0Y-3.325
X3.2Y-3.325
X3.4Y-3.325
X4.1Y-4.375
X4.3Y-4.375
X4.5Y-4.375
T7
X3.55Y-5.34
X3.55Y-5.54
X3.55Y-5.74
X3.75Y-5.34
X3.75Y-5.54
X3.75Y-5.74
X3.95Y-5.34
X3.95Y-5.54
X3.95Y-5.74
T0
M30
