G04 #@! TF.GenerationSoftware,KiCad,Pcbnew,(5.1.6-0-10_14)*
G04 #@! TF.CreationDate,2020-09-27T09:55:32+02:00*
G04 #@! TF.ProjectId,simble-overdrive,73696d62-6c65-42d6-9f76-657264726976,rev?*
G04 #@! TF.SameCoordinates,Original*
G04 #@! TF.FileFunction,Profile,NP*
%FSLAX46Y46*%
G04 Gerber Fmt 4.6, Leading zero omitted, Abs format (unit mm)*
G04 Created by KiCad (PCBNEW (5.1.6-0-10_14)) date 2020-09-27 09:55:32*
%MOMM*%
%LPD*%
G01*
G04 APERTURE LIST*
G04 #@! TA.AperFunction,Profile*
%ADD10C,0.038100*%
G04 #@! TD*
G04 APERTURE END LIST*
D10*
X94000000Y-126000000D02*
G75*
G02*
X94000000Y-128000000I0J-1000000D01*
G01*
X98000000Y-128000000D02*
G75*
G02*
X98000000Y-126000000I0J1000000D01*
G01*
X98000000Y-126000000D02*
X116840000Y-126000000D01*
X102870000Y-128000000D02*
X98000000Y-128000000D01*
X104140000Y-147955000D02*
X104140000Y-129270000D01*
X87630000Y-149225000D02*
X102870000Y-149225000D01*
X86360000Y-129270000D02*
X86360000Y-147955000D01*
X92710000Y-126365000D02*
X92710000Y-126365000D01*
X87630000Y-128000000D02*
X94000000Y-128000000D01*
X73660000Y-126000000D02*
X94000000Y-126000000D01*
X87630000Y-149225000D02*
G75*
G02*
X86360000Y-147955000I0J1270000D01*
G01*
X104140000Y-147955000D02*
G75*
G02*
X102870000Y-149225000I-1270000J0D01*
G01*
X86360000Y-129270000D02*
G75*
G02*
X87630000Y-128000000I1270000J0D01*
G01*
X102870000Y-128000000D02*
G75*
G02*
X104140000Y-129270000I0J-1270000D01*
G01*
X71120000Y-81915000D02*
X71120000Y-123460000D01*
X119380000Y-81915000D02*
X119380000Y-123460000D01*
X73660000Y-79375000D02*
X116840000Y-79375000D01*
X119380000Y-123460000D02*
G75*
G02*
X116840000Y-126000000I-2540000J0D01*
G01*
X73660000Y-126000000D02*
G75*
G02*
X71120000Y-123460000I0J2540000D01*
G01*
X116840000Y-79375000D02*
G75*
G02*
X119380000Y-81915000I0J-2540000D01*
G01*
X71120000Y-81915000D02*
G75*
G02*
X73660000Y-79375000I2540000J0D01*
G01*
M02*
